# xmcd
#
# Track frame offsets: 
#        150
#        12290
#        27861
#        37611
#        49189
#        63165
#        75220
#        90898
#        109449
#        120921
#        133287
#        143813
#        158199
#        170612
#        183893
#        194429
#        206531
#        218734
#        234839
#
# Disc length: 3274 seconds
#
# Revision: 0
# Processed by: cddbd v1.5.2PL0 Copyright (c) Steve Scherf et al.
# Submitted via: ExactAudioCopy v0.95b4
#
DISCID=ec0cc813
DTITLE=Creedence Clearwater Revival - Best of Creedence Clearwater Rev
DTITLE=ival
DYEAR=1900
DGENRE=Blues
TTITLE0=Have you ever seen the rain
TTITLE1=Before You Accuse Me
TTITLE2=Travelin' Band
TTITLE3=Lookin' Out My Back Door
TTITLE4=Run Through The Jungle
TTITLE5=Up Around the Bend
TTITLE6=Long as I Can See the Light
TTITLE7=I Heard It Through The Grapevine
TTITLE8=Green River
TTITLE9=Commotion
TTITLE10=Bad Moon Rising
TTITLE11=Lodi 
TTITLE12=Down on the Corner
TTITLE13=Cotton Fields
TTITLE14=Fortunate Son
TTITLE15=Molina 
TTITLE16=Hey, Tonight
TTITLE17=(I Wish I Could) Hideaway
TTITLE18=Who'll Stop the Rain
EXTD=
EXTT0=
EXTT1=
EXTT2=
EXTT3=
EXTT4=
EXTT5=
EXTT6=
EXTT7=
EXTT8=
EXTT9=
EXTT10=
EXTT11=
EXTT12=
EXTT13=
EXTT14=
EXTT15=
EXTT16=
EXTT17=
EXTT18=
PLAYORDER=
